<?xml version="1.0" encoding="utf-8"?>
<!-- Generator: Adobe Illustrator 19.0.1, SVG Export Plug-In . SVG Version: 6.00 Build 0)  -->
<svg version="1.1" id="Слой_1" xmlns="http://www.w3.org/2000/svg" xmlns:xlink="http://www.w3.org/1999/xlink" x="0px" y="0px"
	 viewBox="0 0 28.4 28.4" style="enable-background:new 0 0 28.4 28.4;" xml:space="preserve">
<style type="text/css">
	.st0{fill:#0C0E0F;}
	.st1{fill:#222121;}
</style>
<g>
	<path class="st0" d="M14,18.6c-0.1,0.1-0.3,0.2-0.5,0.2s-0.3-0.1-0.5-0.2L12.5,18c-0.1-0.1-0.2-0.3-0.2-0.5s0.1-0.3,0.2-0.5
		l2.6-2.6l-2.6-2.6c-0.1-0.1-0.2-0.3-0.2-0.5s0.1-0.3,0.2-0.5l0.6-0.6c0.1-0.1,0.3-0.2,0.5-0.2s0.3,0.1,0.5,0.2l3.7,3.7
		c0.1,0.1,0.2,0.3,0.2,0.5s-0.1,0.3-0.2,0.5L14,18.6z"/>
</g>
</svg>
