<?xml version="1.0" encoding="utf-8"?>
<!-- Generator: Adobe Illustrator 19.0.1, SVG Export Plug-In . SVG Version: 6.00 Build 0)  -->
<svg version="1.1" id="Слой_1" xmlns="http://www.w3.org/2000/svg" xmlns:xlink="http://www.w3.org/1999/xlink" x="0px" y="0px"
	 viewBox="0 0 28.4 28.4" style="enable-background:new 0 0 28.4 28.4;" xml:space="preserve">
<style type="text/css">
	.st0{fill:#0C0E0F;}
	.st1{fill:#222121;}
</style>
<g>
	<path d="M17.6,20.9c-0.8,0-1.5-0.3-2.1-0.7c-0.4,0.1-0.9,0.1-1.3,0.1c-3.5,0-6.3-2.8-6.3-6.3c0-0.5,0.1-0.9,0.1-1.3
		c-0.4-0.6-0.7-1.3-0.7-2.1c0-1.9,1.5-3.4,3.4-3.4c0.8,0,1.5,0.3,2.1,0.7c0.4-0.1,0.9-0.1,1.3-0.1c3.5,0,6.3,2.8,6.3,6.3
		c0,0.5-0.1,0.9-0.1,1.3c0.4,0.6,0.7,1.3,0.7,2.1C21,19.4,19.5,20.9,17.6,20.9z M15,13.2l-0.9-0.2c-0.7-0.2-1.2-0.3-1.2-0.8
		c0-0.5,0.5-0.7,1.3-0.7c1.4,0,1.4,1,2.3,1c0.6,0,0.9-0.5,0.9-1c0-1-1.7-1.7-3.4-1.7c-1.5,0-3.3,0.7-3.3,2.5c0,1.5,1,2,2.3,2.3
		l1.3,0.3c0.8,0.2,1.3,0.3,1.3,0.9c0,0.5-0.5,0.8-1.3,0.8c-1.7,0-1.7-1.4-2.7-1.4c-0.6,0-0.9,0.4-0.9,0.9c0,1.1,1.7,2,3.7,2
		c1.7,0,3.4-0.8,3.4-2.7C17.8,14,16.3,13.4,15,13.2z"/>
</g>
</svg>
