<?xml version="1.0" encoding="utf-8"?>
<!-- Generator: Adobe Illustrator 19.0.1, SVG Export Plug-In . SVG Version: 6.00 Build 0)  -->
<svg version="1.1" id="Слой_1" xmlns="http://www.w3.org/2000/svg" xmlns:xlink="http://www.w3.org/1999/xlink" x="0px" y="0px"
	 viewBox="0 0 28.4 28.4" style="enable-background:new 0 0 28.4 28.4;" xml:space="preserve">
<style type="text/css">
	.st0{fill:#0C0E0F;}
	.st1{fill:#222121;}
</style>
<g>
	<path class="st1" d="M14.8,10.9c0.1-0.2,0.3-0.3,0.5-0.3c0.2,0,0.4,0.1,0.5,0.3l6.1,6.1c0.1,0.1,0.2,0.3,0.2,0.5S22,17.9,21.9,18
		l-0.7,0.7c-0.1,0.1-0.3,0.2-0.5,0.2c-0.2,0-0.4-0.1-0.5-0.2l-4.8-4.8l-4.8,4.8c-0.1,0.1-0.3,0.2-0.5,0.2c-0.2,0-0.4-0.1-0.5-0.2
		L8.7,18c-0.1-0.1-0.2-0.3-0.2-0.5s0.1-0.4,0.2-0.5L14.8,10.9z"/>
</g>
</svg>
