<?xml version="1.0" encoding="utf-8"?>
<!-- Generator: Adobe Illustrator 19.0.1, SVG Export Plug-In . SVG Version: 6.00 Build 0)  -->
<svg version="1.1" id="Слой_1" xmlns="http://www.w3.org/2000/svg" xmlns:xlink="http://www.w3.org/1999/xlink" x="0px" y="0px"
	 viewBox="0 0 28.4 28.4" style="enable-background:new 0 0 28.4 28.4;" xml:space="preserve">
<style type="text/css">
	.st0{fill:#0C0E0F;}
	.st1{fill:#222121;}
</style>
<g>
	<path class="st0" d="M21.7,13.3c-1.7,2.3-1.9,2.1-0.5,3.4c1.4,1.3,1.7,1.9,1.7,2c0,0,0.6,1-0.6,1l-2.3,0c-0.5,0.1-1.1-0.3-1.1-0.3
		c-0.9-0.6-1.7-2.1-2.3-1.9c0,0-0.6,0.2-0.6,1.6c0,0.3-0.1,0.5-0.1,0.5s-0.2,0.2-0.5,0.2h-1C12,19.8,10,17.8,10,17.8
		S7.8,15.5,5.9,11c-0.1-0.3,0-0.4,0-0.4s0.1-0.2,0.5-0.2l2.4,0c0.2,0,0.4,0.2,0.4,0.2s0.1,0.1,0.2,0.3c0.4,1,0.9,1.9,0.9,1.9
		c0.9,1.8,1.5,2.2,1.8,2c0,0,0.5-0.3,0.4-2.5c0-0.8-0.3-1.2-0.3-1.2c-0.2-0.3-0.6-0.4-0.8-0.4c-0.1,0,0.1-0.3,0.4-0.5
		c0.4-0.2,1.2-0.2,2.1-0.2c0.7,0,0.9,0.1,1.2,0.1c0.8,0.2,0.6,1,0.6,2.9c0,0.6-0.1,1.5,0.3,1.7c0.2,0.1,0.7,0,1.8-1.9
		c0,0,0.5-0.9,1-2c0.1-0.2,0.2-0.3,0.2-0.3s0.1-0.1,0.3-0.1l2.6,0c0.8-0.1,0.9,0.3,0.9,0.3C23.1,11,22.7,11.9,21.7,13.3z"/>
</g>
</svg>
