<?xml version="1.0" encoding="utf-8"?>
<!-- Generator: Adobe Illustrator 19.0.1, SVG Export Plug-In . SVG Version: 6.00 Build 0)  -->
<svg version="1.1" id="Слой_1" xmlns="http://www.w3.org/2000/svg" xmlns:xlink="http://www.w3.org/1999/xlink" x="0px" y="0px"
	 viewBox="0 0 28.4 28.4" style="enable-background:new 0 0 28.4 28.4;" xml:space="preserve">
<style type="text/css">
	.st0{fill:#0C0E0F;}
	.st1{fill:#222121;}
</style>
<g>
	<path d="M21.6,7.4c0.2,0,0.3,0.1,0.4,0.3s0.2,0.3,0.2,0.5c0,2.6-0.7,5.1-2,7.3c-1.3,2.2-3,3.9-5.2,5.2c-2.3,1.3-4.7,2-7.3,2
		c-0.2,0-0.3-0.1-0.5-0.2S7,22.2,7,22.1l-0.8-3.3c0-0.2,0-0.3,0.1-0.5S6.5,18,6.6,18l3.5-1.5c0.1-0.1,0.3-0.1,0.5,0s0.3,0.1,0.4,0.3
		l1.5,1.9c1.2-0.6,2.3-1.3,3.3-2.3c0.9-1,1.7-2,2.3-3.3l-1.9-1.5c-0.1-0.1-0.2-0.3-0.3-0.4s0-0.3,0-0.5l1.5-3.5
		c0.1-0.2,0.2-0.3,0.3-0.4s0.3-0.1,0.5-0.1L21.6,7.4z"/>
</g>
</svg>
