<?xml version="1.0" encoding="utf-8"?>
<!-- Generator: Adobe Illustrator 19.0.1, SVG Export Plug-In . SVG Version: 6.00 Build 0)  -->
<svg version="1.1" id="Слой_1" xmlns="http://www.w3.org/2000/svg" xmlns:xlink="http://www.w3.org/1999/xlink" x="0px" y="0px"
	 viewBox="0 0 28.4 28.4" style="enable-background:new 0 0 28.4 28.4;" xml:space="preserve">
<style type="text/css">
	.st0{fill:#0C0E0F;}
	.st1{fill:#222121;}
</style>
<g>
	<path class="st1" d="M8.1,12.6c-0.1-0.1-0.2-0.3-0.2-0.5s0.1-0.4,0.2-0.5l0.7-0.7c0.1-0.1,0.3-0.2,0.5-0.2s0.4,0.1,0.5,0.2l4.8,4.8
		l4.8-4.8c0.1-0.1,0.3-0.2,0.5-0.2s0.4,0.1,0.5,0.2l0.7,0.7c0.1,0.1,0.2,0.3,0.2,0.5s-0.1,0.4-0.2,0.5l-6.1,6.1
		c-0.1,0.2-0.3,0.3-0.5,0.3s-0.4-0.1-0.5-0.3L8.1,12.6z"/>
</g>
</svg>
