<?xml version="1.0" encoding="utf-8"?>
<!-- Generator: Adobe Illustrator 19.0.1, SVG Export Plug-In . SVG Version: 6.00 Build 0)  -->
<svg version="1.1" id="Слой_1" xmlns="http://www.w3.org/2000/svg" xmlns:xlink="http://www.w3.org/1999/xlink" x="0px" y="0px"
	 viewBox="0 0 28.4 28.4" style="enable-background:new 0 0 28.4 28.4;" xml:space="preserve">
<style type="text/css">
	.st0{fill:#0C0E0F;}
	.st1{fill:#222121;}
</style>
<g>
	<path d="M11.5,19.3c-1-1.5-1.7-2.5-2.1-3c-0.5-0.8-0.8-1.4-1-1.9s-0.3-1.1-0.3-1.8c0-1.1,0.3-2.1,0.8-3s1.3-1.6,2.2-2.2
		s1.9-0.8,3-0.8c1.1,0,2.1,0.3,3,0.8s1.6,1.3,2.2,2.2s0.8,1.9,0.8,3c0,0.7-0.1,1.3-0.3,1.8s-0.5,1.1-1,1.9c-0.3,0.5-1,1.5-2.1,3
		l-2.1,3c-0.1,0.2-0.4,0.3-0.6,0.3s-0.5-0.1-0.6-0.3C13,21.6,12.3,20.6,11.5,19.3z M15.9,14.4c0.5-0.5,0.7-1.1,0.7-1.8
		s-0.2-1.3-0.7-1.8s-1.1-0.7-1.8-0.7s-1.3,0.2-1.8,0.7s-0.7,1.1-0.7,1.8s0.2,1.3,0.7,1.8s1.1,0.7,1.8,0.7S15.5,14.9,15.9,14.4z"/>
</g>
</svg>
