<svg xmlns="http://www.w3.org/2000/svg" xmlns:xlink="http://www.w3.org/1999/xlink" preserveAspectRatio="xMidYMid" width="63" height="63" viewBox="0 0 63 63">
  <defs>
    <style>

      .cls-2 {
        fill: #f24843;
      }
    </style>
  </defs>
  <path d="M54.184,16.323 C54.172,17.138 53.890,17.991 53.698,18.698 C53.292,20.187 53.171,21.716 52.785,23.144 C52.535,24.065 52.546,24.906 52.298,25.823 C51.545,28.602 51.222,31.630 50.472,34.410 C50.172,35.522 50.177,36.583 49.863,37.698 C49.358,39.496 49.208,41.435 48.707,43.301 C48.417,44.381 48.042,45.653 47.977,46.833 C49.249,46.826 50.055,47.381 50.837,47.869 C53.093,49.274 54.854,51.087 54.854,54.750 C54.834,55.400 54.813,56.049 54.793,56.699 C54.122,59.277 52.380,61.443 50.107,62.423 C49.541,62.667 48.834,62.823 48.220,62.971 C47.895,62.971 47.571,62.971 47.246,62.971 C45.933,62.972 44.963,62.872 44.081,62.545 C40.631,61.268 39.329,59.174 38.482,55.298 C38.256,54.264 39.110,51.540 39.456,50.974 C39.669,50.626 40.008,50.460 40.064,49.939 C39.375,49.292 38.563,48.697 37.934,47.990 C37.513,47.516 37.153,46.985 36.595,46.651 C36.595,50.710 36.595,54.771 36.595,58.830 C36.360,59.173 36.416,59.797 36.230,60.170 C35.657,61.321 34.510,62.396 33.248,62.850 C32.588,63.087 31.533,62.971 30.692,62.971 C29.008,62.971 27.324,62.971 25.640,62.971 C20.285,62.971 14.928,62.971 9.572,62.971 C7.706,62.971 5.839,62.971 3.973,62.971 C3.122,62.760 2.291,62.284 1.660,61.814 C0.101,60.654 0.078,58.423 0.078,55.664 C0.078,53.045 0.078,50.426 0.078,47.808 C0.078,37.638 0.078,27.466 0.078,17.297 C0.078,14.192 0.078,11.085 0.078,7.980 C0.078,6.862 -0.134,4.629 0.139,3.717 C0.696,1.850 2.154,0.540 4.095,0.063 C6.123,0.063 8.153,0.063 10.181,0.063 C15.090,0.063 20.001,0.063 24.910,0.063 C26.756,0.063 28.602,0.063 30.448,0.063 C31.339,0.063 32.480,-0.070 33.187,0.185 C34.762,0.752 36.042,2.062 36.534,3.717 C36.867,4.833 36.663,6.702 36.595,7.919 C36.595,10.821 36.595,13.725 36.595,16.627 C36.616,16.627 36.636,16.627 36.656,16.627 C37.165,15.921 38.416,15.707 39.212,15.288 C39.846,14.954 40.488,14.503 41.099,14.130 C42.184,13.469 43.385,13.011 44.447,12.364 C45.054,11.995 45.725,11.704 46.333,11.390 C46.617,11.244 46.937,11.272 47.064,10.964 C47.150,10.777 46.776,9.423 46.698,9.076 C46.483,8.113 46.783,6.456 47.003,5.787 C47.740,3.543 49.405,1.497 51.507,0.611 C52.080,0.369 52.591,0.347 53.272,0.185 C54.181,-0.032 56.008,-0.091 56.923,0.185 C57.971,0.500 59.024,1.008 59.845,1.585 C62.267,3.290 64.009,7.838 62.340,11.695 C61.116,14.524 58.300,16.334 54.184,16.323 ZM2.147,6.153 C12.939,6.153 23.734,6.153 34.526,6.153 C34.425,4.495 34.202,3.222 33.126,2.560 C32.824,2.374 32.337,2.277 31.970,2.194 C31.605,2.194 31.239,2.194 30.874,2.194 C30.310,2.074 29.472,2.133 28.805,2.133 C27.466,2.133 26.127,2.133 24.788,2.133 C19.757,2.133 14.725,2.133 9.694,2.133 C7.599,2.133 4.661,1.802 3.365,2.681 C2.403,3.334 2.244,4.617 2.147,6.153 ZM54.063,2.194 C53.717,2.485 52.622,2.509 52.176,2.742 C50.736,3.497 49.704,4.770 49.072,6.335 C48.877,6.819 48.771,7.731 48.889,8.284 C49.030,8.936 48.896,9.448 49.072,9.989 C49.683,11.868 50.902,12.962 52.663,13.704 C53.279,13.964 54.287,14.513 55.341,14.252 C57.766,13.652 59.623,12.545 60.514,10.416 C60.992,9.273 60.917,7.624 60.514,6.518 C59.648,4.142 58.497,2.864 55.949,2.194 C55.321,2.194 54.692,2.194 54.063,2.194 ZM2.147,8.223 C2.147,23.081 2.147,37.943 2.147,52.801 C12.939,52.801 23.734,52.801 34.526,52.801 C34.526,50.041 34.526,47.280 34.526,44.519 C33.795,44.281 33.488,43.430 32.944,42.997 C31.656,41.971 30.570,40.743 29.414,39.586 C28.961,39.134 28.058,38.699 27.831,38.064 C27.782,38.126 27.810,38.080 27.770,38.186 C27.053,38.600 26.525,39.271 25.823,39.708 C24.070,40.799 21.931,41.243 19.615,41.779 C19.072,41.904 18.055,41.821 17.606,41.718 C17.221,41.697 16.835,41.677 16.450,41.657 C15.392,41.400 14.359,41.174 13.468,40.804 C8.883,38.904 6.310,36.364 4.704,31.487 C4.325,30.338 3.660,27.663 4.034,26.067 C4.309,24.893 4.441,23.552 4.886,22.474 C6.341,18.944 8.856,15.955 12.311,14.435 C13.474,13.923 14.862,13.627 16.146,13.278 C17.735,12.846 20.093,13.213 21.380,13.582 C21.880,13.726 22.264,13.703 22.719,13.887 C25.918,15.182 28.904,16.863 30.387,19.855 C31.474,19.363 32.556,18.756 33.552,18.150 C33.877,18.008 34.201,17.866 34.526,17.724 C34.526,14.557 34.526,11.390 34.526,8.223 C23.734,8.223 12.939,8.223 2.147,8.223 ZM52.054,15.836 C50.818,15.678 49.787,14.739 49.072,14.009 C48.748,13.677 48.566,13.090 48.037,12.973 C47.498,13.691 46.203,13.835 45.420,14.313 C43.545,15.460 41.485,16.562 39.517,17.602 C38.811,17.975 38.097,18.393 37.387,18.698 C37.157,18.796 36.706,18.803 36.595,19.002 C36.595,27.223 36.595,35.446 36.595,43.666 C37.179,43.859 37.488,44.480 37.873,44.884 C38.696,45.749 39.708,46.416 40.551,47.260 C40.939,47.648 41.124,48.222 41.708,48.417 C42.198,47.691 43.539,47.243 44.447,46.955 C44.836,46.831 45.527,46.970 45.786,46.711 C46.124,46.374 46.054,44.879 46.212,44.275 C46.437,43.410 46.650,42.388 46.881,41.474 C47.023,40.581 47.165,39.688 47.307,38.795 C48.369,34.838 48.915,30.203 50.046,26.249 C50.254,25.521 50.156,24.843 50.350,24.118 C50.707,22.788 50.807,21.190 51.202,19.794 C51.545,18.583 52.028,17.325 52.054,15.836 ZM17.119,15.348 C16.835,15.585 16.404,15.420 15.963,15.531 C15.254,15.710 14.390,15.913 13.711,16.201 C10.539,17.547 8.222,20.132 6.895,23.326 C6.595,24.048 6.476,24.998 6.286,25.762 C5.890,27.358 6.435,29.920 6.834,30.999 C8.262,34.873 10.135,37.016 13.833,38.612 C14.647,38.963 15.570,39.236 16.572,39.464 C17.140,39.485 17.708,39.505 18.276,39.525 C18.547,39.583 19.189,39.676 19.554,39.586 C20.651,39.318 21.961,39.158 22.962,38.734 C25.573,37.628 28.234,35.232 29.353,32.644 C29.762,31.696 30.056,30.566 30.327,29.538 C30.927,27.256 30.156,24.588 29.474,22.961 C27.507,18.260 23.783,15.360 17.119,15.348 ZM17.241,17.297 C23.264,17.217 26.624,19.913 28.075,24.361 C28.863,26.780 28.571,29.514 27.709,31.548 C27.495,32.053 26.996,33.318 26.492,33.435 C26.052,33.032 24.988,32.754 24.910,32.035 C25.095,31.886 25.086,31.698 25.214,31.487 C26.215,29.835 26.827,26.722 25.884,24.483 C25.033,22.467 23.338,20.763 21.319,19.916 C18.064,18.551 13.709,20.141 12.250,22.108 C11.651,22.917 11.064,23.871 10.668,24.849 C10.148,26.131 10.092,28.324 10.546,29.721 C11.311,32.071 13.158,34.099 15.354,35.019 C16.051,35.311 17.035,35.393 17.789,35.567 C19.116,35.872 21.859,34.854 22.536,34.410 C22.930,34.152 23.079,33.744 23.693,33.679 C23.873,34.028 24.892,35.102 24.849,35.262 C24.606,35.932 23.397,36.282 22.780,36.602 C21.401,37.316 18.537,38.160 16.328,37.577 C14.618,37.125 13.131,36.373 11.885,35.445 C10.017,34.054 8.811,31.573 8.173,28.929 C7.494,26.120 9.019,23.125 10.059,21.560 C10.466,20.948 10.883,20.229 11.459,19.794 C12.443,19.051 13.446,18.342 14.685,17.845 C15.162,17.654 15.737,17.534 16.206,17.419 C16.592,17.324 16.969,17.472 17.241,17.297 ZM34.404,20.159 C34.177,20.455 33.761,20.448 33.430,20.647 C32.788,21.033 32.053,21.402 31.422,21.804 C32.996,24.556 32.891,30.221 31.483,33.070 C31.011,34.025 30.481,35.015 29.840,35.811 C29.726,35.952 29.341,36.525 29.414,36.602 C29.623,36.918 29.903,37.047 30.205,37.272 C30.829,37.737 31.272,38.435 31.909,38.916 C32.882,39.652 33.457,40.894 34.526,41.535 C34.526,34.451 34.526,27.365 34.526,20.281 C34.473,20.236 34.457,20.205 34.404,20.159 ZM45.907,48.843 C45.565,49.151 44.473,49.214 44.020,49.452 C42.742,50.124 41.611,51.368 41.038,52.740 C39.559,56.286 42.151,59.313 44.447,60.353 C45.127,60.661 46.357,61.199 47.551,60.901 C49.783,60.344 51.520,59.137 52.359,57.186 C54.021,53.320 51.020,49.799 48.220,48.965 C47.564,48.769 46.707,48.837 45.907,48.843 ZM2.147,54.872 C2.134,56.937 1.986,59.368 3.182,60.231 C4.616,61.266 7.707,60.962 10.120,60.962 C15.496,60.962 20.873,60.962 26.249,60.962 C28.733,60.962 32.011,61.302 33.491,60.231 C34.686,59.367 34.538,56.935 34.526,54.872 C23.734,54.872 12.939,54.872 2.147,54.872 ZM13.224,56.882 C16.632,56.882 20.041,56.882 23.449,56.882 C23.449,57.572 23.449,58.262 23.449,58.952 C20.041,58.952 16.632,58.952 13.224,58.952 C13.224,58.262 13.224,57.572 13.224,56.882 Z" id="path-1" class="cls-2" fill-rule="evenodd"/>
</svg>
