<svg xmlns="http://www.w3.org/2000/svg" xmlns:xlink="http://www.w3.org/1999/xlink" preserveAspectRatio="xMidYMid" width="61" height="61" viewBox="0 0 61 61">
  <defs>
    <style>

      .cls-2 {
        fill: #f24843;
      }
    </style>
  </defs>
  <path d="M32.128,18.585 C32.128,18.585 37.966,18.585 37.966,18.585 C38.298,16.955 39.743,15.725 41.469,15.725 C43.195,15.725 44.639,16.955 44.971,18.585 C44.971,18.585 54.684,18.585 54.684,18.585 C55.342,18.585 55.876,19.119 55.876,19.776 C55.876,20.434 55.342,20.968 54.684,20.968 C54.684,20.968 44.971,20.968 44.971,20.968 C44.639,22.597 43.195,23.827 41.469,23.827 C39.742,23.827 38.298,22.597 37.966,20.968 C37.966,20.968 32.128,20.968 32.128,20.968 C31.470,20.968 30.937,20.434 30.937,19.776 C30.937,19.119 31.470,18.585 32.128,18.585 ZM40.277,20.253 C40.277,20.910 40.812,21.445 41.469,21.445 C42.126,21.445 42.660,20.910 42.660,20.253 C42.660,20.253 42.660,19.300 42.660,19.300 C42.660,18.643 42.126,18.108 41.469,18.108 C40.812,18.108 40.277,18.643 40.277,19.300 C40.277,19.300 40.277,20.253 40.277,20.253 ZM32.128,31.929 C32.128,31.929 37.966,31.929 37.966,31.929 C38.299,30.300 39.743,29.070 41.469,29.070 C43.195,29.070 44.639,30.300 44.971,31.929 C44.971,31.929 54.684,31.929 54.684,31.929 C55.342,31.929 55.876,32.463 55.876,33.121 C55.876,33.779 55.342,34.312 54.684,34.312 C54.684,34.312 44.971,34.312 44.971,34.312 C44.639,35.942 43.195,37.172 41.469,37.172 C39.743,37.172 38.299,35.942 37.966,34.312 C37.966,34.312 32.128,34.312 32.128,34.312 C31.470,34.312 30.937,33.779 30.937,33.121 C30.937,32.463 31.470,31.929 32.128,31.929 ZM40.277,33.597 C40.277,34.254 40.812,34.789 41.469,34.789 C42.126,34.789 42.660,34.254 42.660,33.597 C42.660,33.597 42.660,32.644 42.660,32.644 C42.660,31.987 42.126,31.453 41.469,31.453 C40.812,31.453 40.277,31.987 40.277,32.644 C40.277,32.644 40.277,33.597 40.277,33.597 ZM32.128,25.257 C32.128,25.257 46.542,25.257 46.542,25.257 C46.874,23.628 48.318,22.398 50.044,22.398 C51.770,22.398 53.214,23.628 53.546,25.257 C53.546,25.257 54.684,25.257 54.684,25.257 C55.342,25.257 55.876,25.791 55.876,26.449 C55.876,27.106 55.342,27.640 54.684,27.640 C54.684,27.640 53.546,27.640 53.546,27.640 C53.214,29.270 51.770,30.500 50.044,30.500 C48.318,30.500 46.874,29.270 46.542,27.640 C46.542,27.640 32.128,27.640 32.128,27.640 C31.470,27.640 30.937,27.106 30.937,26.449 C30.937,25.791 31.470,25.257 32.128,25.257 ZM48.853,26.925 C48.853,27.582 49.387,28.117 50.044,28.117 C50.701,28.117 51.236,27.582 51.236,26.925 C51.236,26.925 51.236,25.972 51.236,25.972 C51.236,25.315 50.701,24.780 50.044,24.780 C49.387,24.780 48.853,25.315 48.853,25.972 C48.853,25.972 48.853,26.925 48.853,26.925 ZM59.809,49.800 C59.809,49.800 39.670,49.800 39.670,49.800 C39.670,49.800 39.670,53.851 39.670,53.851 C39.670,53.851 44.319,53.851 44.319,53.851 C44.977,53.851 45.510,54.384 45.510,55.042 C45.510,55.042 45.510,59.808 45.510,59.808 C45.510,60.466 44.977,61.000 44.319,61.000 C44.319,61.000 23.106,61.000 23.106,61.000 C22.448,61.000 21.915,60.466 21.915,59.808 C21.915,59.808 21.915,55.042 21.915,55.042 C21.915,54.384 22.448,53.851 23.106,53.851 C23.106,53.851 27.755,53.851 27.755,53.851 C27.755,53.851 27.755,49.800 27.755,49.800 C27.755,49.800 7.625,49.800 7.625,49.800 C6.967,49.800 6.434,49.267 6.434,48.609 C6.434,48.609 6.434,32.166 6.434,32.166 C6.434,31.508 6.967,30.975 7.625,30.975 C8.283,30.975 8.816,31.508 8.816,32.166 C8.816,32.166 8.816,40.507 8.816,40.507 C8.816,40.507 58.617,40.507 58.617,40.507 C58.617,40.507 58.617,12.507 58.617,12.507 C58.617,12.507 28.832,12.507 28.832,12.507 C28.832,12.507 28.832,23.171 28.832,23.171 C28.832,23.604 28.597,24.003 28.218,24.213 C28.218,24.213 14.993,31.541 14.993,31.541 C14.814,31.640 14.615,31.690 14.416,31.690 C14.217,31.690 14.018,31.640 13.838,31.541 C13.838,31.541 0.614,24.213 0.614,24.213 C0.235,24.003 -0.000,23.604 -0.000,23.171 C-0.000,23.171 -0.000,8.516 -0.000,8.516 C-0.000,8.083 0.235,7.684 0.614,7.474 C0.614,7.474 13.838,0.147 13.838,0.147 C14.198,-0.052 14.633,-0.052 14.992,0.146 C14.992,0.146 17.253,1.396 17.253,1.396 C17.829,1.714 18.037,2.439 17.719,3.015 C17.401,3.590 16.676,3.799 16.100,3.481 C16.100,3.481 14.417,2.550 14.417,2.550 C14.417,2.550 3.650,8.516 3.650,8.516 C3.650,8.516 14.416,14.481 14.416,14.481 C14.416,14.481 25.184,8.515 25.184,8.515 C25.184,8.515 23.440,7.548 23.440,7.548 C22.865,7.228 22.657,6.503 22.977,5.927 C23.296,5.352 24.021,5.144 24.597,5.464 C24.597,5.464 28.219,7.474 28.219,7.474 C28.597,7.684 28.832,8.083 28.832,8.516 C28.832,8.516 28.832,10.124 28.832,10.124 C28.832,10.124 59.809,10.124 59.809,10.124 C60.466,10.124 61.000,10.658 61.000,11.316 C61.000,11.316 61.000,48.609 61.000,48.609 C61.000,49.267 60.466,49.800 59.809,49.800 ZM13.225,16.546 C13.225,16.546 2.383,10.538 2.383,10.538 C2.383,10.538 2.383,22.469 2.383,22.469 C2.383,22.469 13.225,28.476 13.225,28.476 C13.225,28.476 13.225,16.546 13.225,16.546 ZM26.449,10.538 C26.449,10.538 15.607,16.545 15.607,16.545 C15.607,16.545 15.607,28.476 15.607,28.476 C15.607,28.476 26.449,22.469 26.449,22.469 C26.449,22.469 26.449,10.538 26.449,10.538 ZM24.297,56.234 C24.297,56.234 24.297,58.617 24.297,58.617 C24.297,58.617 43.127,58.617 43.127,58.617 C43.127,58.617 43.127,56.234 43.127,56.234 C43.127,56.234 24.297,56.234 24.297,56.234 ZM37.287,53.851 C37.287,53.851 37.287,49.800 37.287,49.800 C37.287,49.800 30.138,49.800 30.138,49.800 C30.138,49.800 30.138,53.851 30.138,53.851 C30.138,53.851 30.138,53.851 30.138,53.851 C30.138,53.851 37.287,53.851 37.287,53.851 ZM58.617,42.890 C58.617,42.890 8.816,42.890 8.816,42.890 C8.816,42.890 8.816,47.417 8.816,47.417 C8.816,47.417 58.617,47.417 58.617,47.417 C58.617,47.417 58.617,42.890 58.617,42.890 ZM33.605,43.962 C33.919,43.962 34.227,44.089 34.447,44.311 C34.670,44.533 34.796,44.840 34.796,45.153 C34.796,45.468 34.670,45.774 34.447,45.997 C34.227,46.219 33.919,46.346 33.605,46.346 C33.291,46.346 32.985,46.219 32.763,45.997 C32.541,45.774 32.413,45.468 32.413,45.153 C32.413,44.840 32.541,44.534 32.763,44.311 C32.985,44.089 33.291,43.962 33.605,43.962 ZM20.523,5.764 C20.209,5.764 19.902,5.636 19.680,5.415 C19.458,5.193 19.332,4.886 19.332,4.572 C19.332,4.258 19.458,3.952 19.680,3.730 C19.902,3.508 20.210,3.381 20.523,3.381 C20.836,3.381 21.143,3.508 21.365,3.730 C21.587,3.952 21.714,4.259 21.714,4.572 C21.714,4.886 21.587,5.192 21.365,5.415 C21.143,5.636 20.836,5.764 20.523,5.764 Z" id="path-1" class="cls-2" fill-rule="evenodd"/>
</svg>
