<svg xmlns="http://www.w3.org/2000/svg" xmlns:xlink="http://www.w3.org/1999/xlink" preserveAspectRatio="xMidYMid" width="64" height="51" viewBox="0 0 64 51">
  <defs>
    <style>

      .cls-2 {
        fill: #f24843;
      }
    </style>
  </defs>
  <path d="M59.710,42.451 C59.710,42.451 55.518,46.673 55.518,46.673 C52.739,49.465 49.057,51.000 45.142,51.000 C45.142,51.000 19.999,51.000 19.999,51.000 C17.794,51.000 15.999,49.193 15.999,46.974 C15.999,44.013 18.194,41.468 21.106,41.049 C21.106,41.049 31.868,39.348 31.868,39.348 C31.868,39.348 13.714,21.074 13.714,21.074 C11.728,19.074 11.728,15.820 13.714,13.823 C15.722,11.805 18.949,11.810 20.935,13.807 C20.935,13.807 25.660,18.564 25.660,18.564 C25.892,17.772 26.319,17.023 26.940,16.398 C28.732,14.596 31.705,14.425 33.647,15.928 C33.876,15.115 34.308,14.350 34.940,13.714 C36.734,11.907 39.705,11.743 41.652,13.246 C41.876,12.430 42.308,11.666 42.940,11.029 C44.897,9.059 48.235,9.072 50.158,11.013 C50.158,11.013 60.187,22.102 60.187,22.102 C62.645,24.824 64.000,28.348 64.000,32.025 C64.000,35.963 62.477,39.667 59.710,42.451 ZM58.211,23.911 C58.211,23.911 48.227,12.865 48.227,12.865 C47.395,12.033 45.758,11.993 44.841,12.911 C43.894,13.864 43.881,15.383 44.782,16.339 C44.782,16.339 44.942,16.500 44.942,16.500 C45.462,17.023 45.462,17.871 44.945,18.395 C44.438,18.910 43.617,18.923 43.089,18.429 C43.089,18.429 43.089,18.429 43.086,18.429 C43.086,18.429 43.084,18.429 43.084,18.429 C43.084,18.429 43.084,18.429 43.081,18.427 C43.081,18.427 43.081,18.427 43.078,18.424 C43.076,18.424 43.076,18.422 43.076,18.422 C43.081,18.424 43.087,18.427 43.065,18.416 C43.065,18.416 43.062,18.414 43.062,18.414 C43.060,18.414 43.060,18.411 43.057,18.408 C43.057,18.408 40.273,15.595 40.273,15.595 C39.356,14.672 37.758,14.677 36.844,15.595 C35.895,16.554 35.884,18.080 36.793,19.036 C36.793,19.036 39.609,21.868 39.609,21.868 C40.129,22.391 40.129,23.242 39.609,23.766 C39.089,24.289 38.244,24.289 37.724,23.766 C37.724,23.766 34.940,20.966 34.940,20.966 C34.924,20.953 34.911,20.937 34.895,20.920 C34.895,20.920 32.273,18.279 32.273,18.279 C31.356,17.356 29.761,17.361 28.844,18.279 C27.900,19.232 27.884,20.749 28.783,21.704 C28.783,21.704 34.279,27.237 34.279,27.237 C34.798,27.760 34.798,28.611 34.279,29.134 C33.759,29.658 32.913,29.658 32.393,29.134 C32.393,29.134 26.943,23.651 26.943,23.651 C26.921,23.629 26.897,23.608 26.879,23.586 C26.879,23.586 19.050,15.705 19.050,15.705 C18.575,15.227 17.954,14.988 17.333,14.988 C16.711,14.988 16.090,15.227 15.615,15.702 C14.655,16.671 14.655,18.220 15.599,19.173 C15.599,19.173 35.607,39.313 35.607,39.313 C35.961,39.670 36.086,40.199 35.932,40.676 C35.775,41.157 35.367,41.508 34.871,41.586 C34.871,41.586 21.498,43.701 21.498,43.701 C19.876,43.938 18.666,45.341 18.666,46.974 C18.666,47.714 19.266,48.316 19.999,48.316 C19.999,48.316 45.142,48.316 45.142,48.316 C48.345,48.316 51.360,47.059 53.630,44.778 C53.630,44.778 57.822,40.556 57.822,40.556 C60.083,38.277 61.331,35.246 61.331,32.028 C61.331,29.019 60.224,26.139 58.211,23.911 ZM43.070,18.419 C43.070,18.419 43.073,18.420 43.075,18.422 C43.075,18.422 43.073,18.422 43.073,18.422 C43.076,18.422 43.073,18.422 43.070,18.419 ZM13.506,25.996 C14.178,26.303 14.474,27.097 14.173,27.773 C13.949,28.267 13.466,28.563 12.957,28.563 C12.773,28.563 12.586,28.525 12.407,28.445 C8.112,26.488 5.333,22.171 5.333,17.447 C5.333,10.788 10.717,5.368 17.332,5.368 C22.028,5.368 26.313,8.165 28.257,12.492 C28.559,13.166 28.260,13.963 27.591,14.266 C26.916,14.572 26.130,14.272 25.826,13.595 C24.314,10.229 20.980,8.052 17.333,8.052 C12.186,8.052 8.000,12.267 8.000,17.447 C8.000,21.119 10.162,24.474 13.506,25.996 ZM33.121,14.605 C32.383,14.795 31.676,14.366 31.489,13.652 C29.785,7.194 23.962,2.684 17.333,2.684 C9.248,2.684 2.667,9.306 2.667,17.447 C2.667,24.123 7.149,29.982 13.562,31.698 C14.277,31.888 14.698,32.624 14.509,33.340 C14.351,33.942 13.813,34.337 13.221,34.337 C13.109,34.337 12.994,34.323 12.879,34.291 C5.296,32.264 -0.000,25.336 -0.000,17.447 C-0.000,7.827 7.776,-0.000 17.333,-0.000 C25.170,-0.000 32.052,5.331 34.065,12.962 C34.252,13.679 33.831,14.414 33.121,14.605 Z" id="path-1" class="cls-2" fill-rule="evenodd"/>
</svg>
