<svg xmlns="http://www.w3.org/2000/svg" xmlns:xlink="http://www.w3.org/1999/xlink" preserveAspectRatio="xMidYMid" width="64" height="55" viewBox="0 0 64 55">
  <defs>
    <style>

      .cls-2 {
        fill: #f24843;
      }
    </style>
  </defs>
  <path d="M63.988,41.848 C63.988,42.369 63.568,42.792 63.050,42.792 C62.533,42.792 62.113,42.369 62.113,41.848 C62.113,41.848 62.113,15.732 62.113,15.732 C62.113,15.732 45.588,15.732 45.588,15.732 C45.588,15.732 45.313,16.009 45.313,16.009 C45.313,16.009 45.976,16.676 45.976,16.676 C46.342,17.045 46.342,17.642 45.976,18.011 C45.976,18.011 41.911,22.105 41.911,22.105 C41.735,22.282 41.496,22.382 41.248,22.382 C41.107,22.382 40.969,22.348 40.844,22.288 C40.844,22.288 31.787,31.408 31.787,31.408 C31.421,31.777 30.827,31.777 30.461,31.408 C30.095,31.040 30.095,30.442 30.461,30.073 C30.461,30.073 39.480,20.993 39.480,20.993 C39.480,20.993 38.154,19.658 38.154,19.658 C38.154,19.658 23.570,34.342 23.570,34.342 C23.570,34.342 24.896,35.677 24.896,35.677 C24.896,35.677 27.529,33.026 27.529,33.026 C27.895,32.657 28.489,32.657 28.855,33.026 C29.221,33.395 29.221,33.992 28.855,34.361 C28.855,34.361 25.559,37.679 25.559,37.679 C25.549,37.689 25.538,37.698 25.528,37.708 C25.520,37.715 25.512,37.723 25.503,37.730 C25.443,37.782 25.379,37.824 25.311,37.858 C25.303,37.861 25.296,37.865 25.288,37.868 C25.258,37.882 25.227,37.895 25.196,37.905 C25.190,37.908 25.184,37.910 25.177,37.912 C25.140,37.924 25.102,37.934 25.063,37.940 C25.063,37.940 15.422,39.631 15.422,39.631 C15.368,39.641 15.314,39.645 15.261,39.645 C15.014,39.645 14.775,39.547 14.598,39.369 C14.579,39.350 14.563,39.330 14.546,39.310 C14.545,39.308 14.544,39.307 14.543,39.306 C14.520,39.279 14.500,39.251 14.481,39.222 C14.480,39.220 14.479,39.219 14.477,39.217 C14.459,39.189 14.442,39.159 14.427,39.129 C14.425,39.127 14.424,39.124 14.423,39.122 C14.408,39.092 14.395,39.061 14.384,39.030 C14.383,39.027 14.382,39.025 14.381,39.022 C14.369,38.991 14.360,38.959 14.352,38.927 C14.351,38.924 14.350,38.920 14.350,38.917 C14.342,38.885 14.337,38.853 14.333,38.821 C14.332,38.817 14.331,38.812 14.331,38.808 C14.327,38.776 14.325,38.744 14.325,38.713 C14.325,38.707 14.325,38.702 14.325,38.697 C14.325,38.666 14.327,38.635 14.330,38.603 C14.330,38.600 14.330,38.597 14.331,38.594 C14.332,38.583 14.333,38.571 14.335,38.559 C14.336,38.552 14.336,38.545 14.337,38.539 C14.337,38.539 16.018,28.840 16.018,28.840 C16.018,28.837 16.019,28.834 16.020,28.831 C16.027,28.793 16.036,28.755 16.047,28.719 C16.050,28.711 16.053,28.704 16.055,28.697 C16.065,28.667 16.077,28.638 16.090,28.609 C16.094,28.600 16.099,28.590 16.104,28.580 C16.119,28.549 16.136,28.518 16.155,28.489 C16.157,28.486 16.158,28.483 16.160,28.481 C16.181,28.449 16.204,28.419 16.228,28.390 C16.235,28.382 16.243,28.374 16.250,28.366 C16.259,28.356 16.268,28.345 16.278,28.335 C16.278,28.335 28.795,15.732 28.795,15.732 C28.795,15.732 1.885,15.732 1.885,15.732 C1.885,15.732 1.885,17.620 1.885,17.620 C1.885,18.141 1.466,18.564 0.948,18.564 C0.430,18.564 0.010,18.141 0.010,17.620 C0.010,17.620 -0.000,2.454 -0.000,2.454 C-0.000,1.101 1.093,-0.000 2.437,-0.000 C2.437,-0.000 2.447,-0.000 2.447,-0.000 C2.447,-0.000 61.550,-0.000 61.550,-0.000 C61.550,-0.000 61.561,-0.000 61.561,-0.000 C62.905,-0.000 63.998,1.101 63.998,2.454 C63.998,2.454 63.988,41.848 63.988,41.848 ZM45.092,11.337 C45.092,11.337 42.441,8.667 42.441,8.667 C41.831,8.053 40.840,8.053 40.231,8.667 C40.231,8.667 39.126,9.779 39.126,9.779 C39.126,9.779 43.987,14.674 43.987,14.674 C43.987,14.674 45.092,13.562 45.092,13.562 C45.701,12.948 45.701,11.950 45.092,11.337 ZM41.247,20.103 C41.247,20.103 43.987,17.344 43.987,17.344 C43.987,17.344 36.474,9.779 36.474,9.779 C36.474,9.780 36.474,9.779 36.474,9.780 C36.474,9.780 33.734,12.538 33.734,12.538 C33.734,12.538 41.247,20.103 41.247,20.103 ZM36.828,18.323 C36.828,18.323 35.502,16.988 35.502,16.988 C35.502,16.988 20.919,31.672 20.919,31.672 C20.919,31.672 22.244,33.007 22.244,33.007 C22.244,33.007 36.828,18.323 36.828,18.323 ZM16.414,37.541 C16.414,37.541 17.837,37.291 17.837,37.291 C17.837,37.291 16.662,36.109 16.662,36.109 C16.662,36.109 16.414,37.541 16.414,37.541 ZM17.055,33.835 C17.055,33.835 20.096,36.895 20.096,36.895 C20.096,36.895 22.956,36.394 22.956,36.394 C22.956,36.394 17.555,30.955 17.555,30.955 C17.555,30.955 17.055,33.835 17.055,33.835 ZM18.267,29.002 C18.267,29.002 19.593,30.337 19.593,30.337 C19.593,30.337 34.177,15.653 34.177,15.653 C34.177,15.653 32.851,14.318 32.851,14.318 C32.851,14.318 18.267,29.002 18.267,29.002 ZM1.885,13.844 C1.885,13.844 1.885,13.845 1.885,13.845 C1.885,13.845 30.669,13.845 30.669,13.845 C30.669,13.845 31.563,12.944 31.563,12.944 C31.413,12.626 31.448,12.242 31.671,11.957 C31.671,11.957 1.885,11.957 1.885,11.957 C1.885,11.957 1.885,13.844 1.885,13.844 ZM22.624,1.888 C22.624,1.888 2.447,1.888 2.447,1.888 C2.137,1.888 1.885,2.142 1.885,2.454 C1.885,2.454 1.885,10.068 1.885,10.068 C1.885,10.068 22.624,10.068 22.624,10.068 C22.624,10.068 22.624,1.888 22.624,1.888 ZM62.113,2.454 C62.113,2.142 61.860,1.888 61.550,1.888 C61.550,1.888 24.499,1.888 24.499,1.888 C24.499,1.888 24.499,10.069 24.499,10.069 C24.499,10.069 33.536,10.069 33.536,10.069 C33.536,10.069 35.812,7.777 35.812,7.777 C36.178,7.408 36.771,7.408 37.138,7.777 C37.138,7.777 37.801,8.444 37.801,8.444 C37.801,8.444 38.905,7.332 38.905,7.332 C39.555,6.678 40.418,6.318 41.336,6.318 C42.254,6.318 43.117,6.678 43.766,7.332 C43.766,7.332 46.418,10.002 46.418,10.002 C46.440,10.024 46.460,10.046 46.481,10.069 C46.481,10.069 62.113,10.069 62.113,10.069 C62.113,10.069 62.113,2.454 62.113,2.454 ZM62.113,11.957 C62.113,11.957 47.388,11.957 47.388,11.957 C47.478,12.592 47.392,13.248 47.132,13.844 C47.132,13.844 62.113,13.844 62.113,13.844 C62.113,13.844 62.113,11.957 62.113,11.957 ZM5.875,3.146 C7.426,3.146 8.687,4.417 8.687,5.978 C8.687,7.539 7.425,8.810 5.875,8.810 C4.324,8.810 3.062,7.539 3.062,5.978 C3.062,4.417 4.324,3.146 5.875,3.146 ZM5.875,6.922 C6.392,6.922 6.812,6.499 6.812,5.978 C6.812,5.457 6.392,5.034 5.875,5.034 C5.358,5.034 4.937,5.457 4.937,5.978 C4.937,6.499 5.358,6.922 5.875,6.922 ZM12.374,3.146 C13.925,3.146 15.187,4.417 15.187,5.978 C15.187,7.539 13.925,8.810 12.374,8.810 C10.824,8.810 9.562,7.539 9.562,5.978 C9.562,4.417 10.824,3.146 12.374,3.146 ZM12.374,6.922 C12.892,6.922 13.312,6.499 13.312,5.978 C13.312,5.457 12.892,5.034 12.374,5.034 C11.858,5.034 11.437,5.457 11.437,5.978 C11.437,6.499 11.858,6.922 12.374,6.922 ZM18.749,3.146 C20.300,3.146 21.562,4.417 21.562,5.978 C21.562,7.539 20.300,8.810 18.749,8.810 C17.199,8.810 15.937,7.539 15.937,5.978 C15.937,4.417 17.199,3.146 18.749,3.146 ZM18.749,6.922 C19.266,6.922 19.687,6.499 19.687,5.978 C19.687,5.457 19.266,5.034 18.749,5.034 C18.232,5.034 17.812,5.457 17.812,5.978 C17.812,6.499 18.232,6.922 18.749,6.922 ZM38.198,12.938 C38.198,12.938 40.850,15.608 40.850,15.608 C41.216,15.977 41.216,16.575 40.850,16.943 C40.667,17.127 40.426,17.220 40.187,17.220 C39.947,17.220 39.707,17.127 39.524,16.943 C39.524,16.943 36.872,14.273 36.872,14.273 C36.506,13.905 36.506,13.307 36.872,12.938 C37.238,12.570 37.832,12.570 38.198,12.938 ZM15.249,42.328 C14.732,42.328 14.312,41.905 14.312,41.384 C14.312,40.863 14.732,40.440 15.249,40.440 C15.249,40.440 48.748,40.440 48.748,40.440 C49.266,40.440 49.686,40.863 49.686,41.384 C49.686,41.905 49.266,42.328 48.748,42.328 C48.748,42.328 15.249,42.328 15.249,42.328 ZM0.948,20.766 C1.465,20.766 1.885,21.189 1.885,21.711 C1.885,21.711 1.885,49.336 1.885,49.336 C1.885,49.336 62.112,49.336 62.112,49.336 C62.112,49.336 62.112,45.938 62.112,45.938 C62.112,45.417 62.532,44.994 63.050,44.994 C63.568,44.994 63.987,45.417 63.987,45.938 C63.987,45.938 63.987,50.147 63.987,50.147 C63.994,50.190 63.998,50.235 63.998,50.280 C63.998,50.280 63.998,52.546 63.998,52.546 C63.998,53.899 62.905,55.000 61.561,55.000 C61.561,55.000 61.550,55.000 61.550,55.000 C61.550,55.000 2.447,55.000 2.447,55.000 C2.447,55.000 2.437,55.000 2.437,55.000 C1.093,55.000 -0.000,53.899 -0.000,52.546 C-0.000,52.546 0.010,21.711 0.010,21.711 C0.010,21.189 0.430,20.766 0.948,20.766 ZM1.885,52.546 C1.885,52.858 2.137,53.112 2.447,53.112 C2.447,53.112 61.550,53.112 61.550,53.112 C61.860,53.112 62.112,52.858 62.112,52.546 C62.112,52.546 62.112,52.546 62.112,52.546 C62.112,52.546 62.112,51.224 62.112,51.224 C62.112,51.224 1.885,51.224 1.885,51.224 C1.885,51.224 1.885,52.546 1.885,52.546 Z" id="path-1" class="cls-2" fill-rule="evenodd"/>
</svg>
