<svg xmlns="http://www.w3.org/2000/svg" xmlns:xlink="http://www.w3.org/1999/xlink" preserveAspectRatio="xMidYMid" width="31" height="30" viewBox="0 0 31 30">
  <defs>
    <style>

      .cls-2 {
        fill: #000000;
      }
    </style>
  </defs>
  <path d="M29.740,28.470 C29.740,28.470 22.448,21.179 22.448,21.179 C24.404,18.931 25.588,15.998 25.588,12.792 C25.588,5.734 19.846,-0.000 12.794,-0.000 C5.735,-0.000 -0.000,5.740 -0.000,12.792 C-0.000,19.842 5.742,25.583 12.794,25.583 C16.001,25.583 18.935,24.399 21.184,22.443 C21.184,22.443 28.475,29.734 28.475,29.734 C28.648,29.907 28.881,30.000 29.107,30.000 C29.334,30.000 29.567,29.913 29.740,29.734 C30.085,29.388 30.085,28.816 29.740,28.470 ZM1.790,12.792 C1.790,6.725 6.726,1.796 12.787,1.796 C18.855,1.796 23.785,6.731 23.785,12.792 C23.785,18.851 18.855,23.793 12.787,23.793 C6.726,23.793 1.790,18.858 1.790,12.792 Z" id="path-1" class="cls-2" fill-rule="evenodd"/>
</svg>
